# Blender v2.82 (sub 7) OBJ File: ''
# www.blender.org
mtllib PeraVariante.mtl
o pear_Circle.002
v 3.844809 0.534658 0.000000
v 2.718691 0.534658 -2.718690
v 2.380941 3.009425 -2.380940
v 3.367159 3.009425 0.000000
v 0.000000 0.534657 3.844809
v 2.718691 0.534658 2.718690
v 2.380941 3.009424 2.380940
v 0.000000 3.009424 3.367159
v -3.844809 0.534658 0.000000
v -2.718690 0.534658 2.718690
v -2.380941 3.009424 2.380941
v -3.367159 3.009425 0.000000
v 0.000000 0.534659 -3.844809
v -2.718690 0.534658 -2.718690
v -2.380941 3.009425 -2.380940
v 0.000000 3.009425 -3.367158
v 1.273464 6.193748 -1.273462
v 0.000000 6.193748 -1.800948
v 0.000000 8.632085 -1.544636
v 1.092224 8.632085 -1.092222
v -1.733136 4.478351 -1.733135
v 0.000000 4.478351 -2.451024
v 1.800949 6.193748 0.000001
v 1.544637 8.632085 0.000001
v 0.000000 6.193748 1.800950
v 1.273464 6.193748 1.273464
v 1.092224 8.632085 1.092224
v 0.000000 8.632085 1.544638
v -1.800949 6.193748 0.000001
v -1.273463 6.193748 1.273464
v -1.092224 8.632085 1.092225
v -1.544637 8.632085 0.000001
v 3.454199 -0.921961 -0.000000
v 2.442488 -0.921961 -2.442487
v 1.733137 4.478351 -1.733135
v 2.451025 4.478350 0.000001
v 1.733137 4.478350 1.733137
v 0.000000 4.478350 2.451026
v -1.733136 4.478350 1.733137
v -2.451025 4.478350 0.000001
v -1.273463 6.193748 -1.273462
v -1.092224 8.632085 -1.092223
v -1.016621 9.318376 0.000002
v -0.718860 9.318376 -0.718858
v 0.718860 9.318376 -0.718858
v 1.016621 9.318376 0.000002
v 0.718860 9.318376 0.718861
v 0.000000 9.318376 1.016623
v -0.718860 9.318376 0.718861
v 0.000000 9.318376 -1.016619
v 0.000000 9.603696 -0.200772
v 0.141969 9.603696 -0.141967
v 0.200774 9.603696 0.000002
v 0.141969 9.603696 0.141970
v 0.000000 9.603696 0.200776
v -0.141968 9.603696 0.141970
v -0.200774 9.603696 0.000002
v -0.141968 9.603696 -0.141967
v 0.000000 -0.921962 3.454199
v 2.442488 -0.921961 2.442487
v -3.454199 -0.921961 -0.000000
v -2.442487 -0.921961 2.442487
v 0.000000 -0.921960 -3.454199
v -2.442487 -0.921961 -2.442487
v 0.000000 -1.679142 1.978403
v 1.398943 -1.679142 1.398942
v -1.978403 -1.679142 -0.000000
v -1.398942 -1.679142 1.398942
v 1.978403 -1.679142 -0.000000
v 1.398943 -1.679142 -1.398942
v 0.000000 -1.679142 -1.978403
v -1.398942 -1.679142 -1.398942
v 0.658912 -1.841631 -0.658912
v 0.000000 -1.841631 -0.931842
v 0.658912 -1.841631 0.658911
v 0.931842 -1.841631 -0.000000
v 0.000000 -1.841631 0.931842
v -0.658912 -1.841631 -0.658912
v -0.931842 -1.841631 -0.000000
v -0.658912 -1.841631 0.658912
v 0.000000 -1.841631 -0.000000
v -0.126626 9.765768 0.154235
v -0.179076 9.775406 0.028432
v -0.126626 9.785043 -0.097370
v 0.000000 9.789034 -0.149479
v 0.126626 9.785043 -0.097370
v 0.179076 9.775406 0.028432
v 0.126626 9.765768 0.154235
v 0.000000 9.761776 0.206344
v -0.180018 10.286962 0.259554
v -0.127292 10.259851 0.382436
v -0.163560 10.661170 0.608977
v -0.231309 10.718003 0.455609
v 0.000000 10.325300 0.085774
v -0.127292 10.314071 0.136673
v -0.163560 10.774837 0.302241
v 0.000000 10.798382 0.238714
v 0.127292 10.314071 0.136673
v 0.163560 10.774837 0.302241
v 0.127292 10.259851 0.382436
v 0.180018 10.286962 0.259554
v 0.231309 10.718003 0.455609
v 0.163560 10.661170 0.608977
v 0.000000 10.248620 0.433335
v 0.000000 10.637626 0.672504
v 0.000000 10.718003 0.455609
vn -0.9213 0.0553 0.3848
vn 0.9213 0.0553 0.3848
vn -0.3819 -0.0331 0.9236
vn -0.9118 0.1727 -0.3726
vn 0.9118 0.1727 -0.3726
vn 0.3819 -0.0331 0.9236
vn -0.9119 -0.2580 0.3193
vn -0.3802 0.2853 -0.8798
vn 0.3802 0.2853 -0.8798
vn 0.9119 -0.2580 0.3193
vn -0.3698 -0.4842 0.7929
vn -0.9218 0.0646 -0.3824
vn 0.9218 0.0646 -0.3824
vn 0.3698 -0.4842 0.7929
vn 0.0000 0.9377 0.3475
vn 0.3659 -0.3919 0.8441
vn 0.9173 0.1613 -0.3641
vn -0.9173 0.1613 -0.3641
vn -0.3659 -0.3919 0.8441
vn 0.9167 -0.1673 0.3630
vn 0.3677 0.3747 -0.8511
vn -0.3677 0.3747 -0.8511
vn -0.9167 -0.1673 0.3630
vn 0.9095 0.1755 -0.3767
vn 0.3767 0.1755 0.9095
vn -0.9095 0.1755 0.3767
vn -0.3767 0.1755 -0.9095
vn 0.3767 0.1755 -0.9095
vn 0.9095 0.1755 0.3767
vn -0.3767 0.1755 0.9095
vn -0.9095 0.1755 -0.3767
vn 0.3809 0.0967 -0.9196
vn -0.3316 0.4993 -0.8005
vn 0.9196 0.0967 -0.3809
vn 0.3809 0.0967 0.9196
vn -0.9196 0.0967 0.3809
vn 0.8968 -0.2405 -0.3715
vn 0.9196 0.0967 0.3809
vn -0.3809 0.0967 0.9196
vn 0.8005 0.4993 -0.3316
vn 0.3316 0.4993 0.8005
vn -0.8005 0.4993 0.3316
vn 0.3316 0.4993 -0.8005
vn -0.9196 0.0967 -0.3809
vn 0.8005 0.4993 0.3316
vn -0.3316 0.4993 0.8005
vn -0.8005 0.4993 -0.3316
vn -0.7530 0.5794 -0.3119
vn 0.7530 0.5794 -0.3119
vn 0.3119 0.5794 0.7530
vn -0.7530 0.5794 0.3119
vn -0.3119 0.5794 -0.7530
vn 0.3119 0.5794 -0.7530
vn 0.7530 0.5794 0.3119
vn -0.3119 0.5794 0.7530
vn 0.1355 0.9352 -0.3271
vn 0.3271 0.9352 0.1355
vn -0.1355 0.9352 0.3271
vn -0.3271 0.9352 -0.1355
vn 0.3271 0.9352 -0.1355
vn 0.1355 0.9352 0.3271
vn -0.3271 0.9352 0.1355
vn -0.1355 0.9352 -0.3271
vn -0.3612 0.3304 -0.8720
vn -0.8720 0.3304 -0.3612
vn -0.8720 0.3304 0.3612
vn -0.3612 0.3304 0.8720
vn 0.3612 0.3304 0.8720
vn 0.8720 0.3304 0.3612
vn 0.8720 0.3304 -0.3612
vn 0.3612 0.3304 -0.8720
vn -0.3809 0.0967 -0.9196
vn 0.3715 -0.2405 0.8968
vn -0.8968 -0.2405 0.3715
vn -0.3715 -0.2405 -0.8968
vn 0.3715 -0.2405 -0.8968
vn 0.8968 -0.2405 0.3715
vn -0.3715 -0.2405 0.8968
vn -0.8968 -0.2405 -0.3715
vn 0.1858 -0.8742 0.4485
vn -0.4485 -0.8742 0.1858
vn 0.4485 -0.8742 -0.1858
vn 0.4485 -0.8742 0.1858
vn 0.1858 -0.8742 -0.4485
vn -0.1858 -0.8742 -0.4485
vn -0.1858 -0.8742 0.4485
vn -0.4485 -0.8742 -0.1858
vn 0.0634 -0.9862 -0.1531
vn 0.1531 -0.9862 0.0634
vn 0.0634 -0.9862 0.1531
vn -0.1531 -0.9862 -0.0634
vn -0.0634 -0.9862 -0.1531
vn 0.1531 -0.9862 -0.0634
vn -0.0634 -0.9862 0.1531
vn -0.1531 -0.9862 0.0634
vn 0.0000 -1.0000 0.0000
vn -0.3728 0.2493 -0.8938
vn 0.3728 0.2493 -0.8938
usemtl 795548
s 1
f 57//1 56//1 82//1 83//1
f 54//2 53//2 87//2 88//2
f 56//3 55//3 89//3 82//3
f 58//4 57//4 83//4 84//4
f 53//5 52//5 86//5 87//5
f 55//6 54//6 88//6 89//6
f 90//7 91//7 92//7 93//7
f 94//8 95//8 96//8 97//8
f 98//9 94//9 97//9 99//9
f 100//10 101//10 102//10 103//10
f 91//11 104//11 105//11 92//11
f 95//12 90//12 93//12 96//12
f 101//13 98//13 99//13 102//13
f 104//14 100//14 103//14 105//14
f 102//15 99//15 106//15
f 105//15 103//15 106//15
f 93//15 92//15 106//15
f 97//15 96//15 106//15
f 99//15 97//15 106//15
f 103//15 102//15 106//15
f 92//15 105//15 106//15
f 96//15 93//15 106//15
f 89//16 88//16 100//16 104//16
f 87//17 86//17 98//17 101//17
f 84//18 83//18 90//18 95//18
f 82//19 89//19 104//19 91//19
f 88//20 87//20 101//20 100//20
f 86//21 85//21 94//21 98//21
f 85//22 84//22 95//22 94//22
f 83//23 82//23 91//23 90//23
usemtl Material.001
f 1//24 2//24 3//24 4//24
f 5//25 6//25 7//25 8//25
f 9//26 10//26 11//26 12//26
f 13//27 14//27 15//27 16//27
f 2//28 13//28 16//28 3//28
f 6//29 1//29 4//29 7//29
f 10//30 5//30 8//30 11//30
f 14//31 9//31 12//31 15//31
f 17//32 18//32 19//32 20//32
f 16//33 15//33 21//33 22//33
f 23//34 17//34 20//34 24//34
f 25//35 26//35 27//35 28//35
f 29//36 30//36 31//36 32//36
f 2//37 1//37 33//37 34//37
f 26//38 23//38 24//38 27//38
f 30//39 25//39 28//39 31//39
f 4//40 3//40 35//40 36//40
f 8//41 7//41 37//41 38//41
f 12//42 11//42 39//42 40//42
f 3//43 16//43 22//43 35//43
f 41//44 29//44 32//44 42//44
f 7//45 4//45 36//45 37//45
f 11//46 8//46 38//46 39//46
f 15//47 12//47 40//47 21//47
f 42//48 32//48 43//48 44//48
f 24//49 20//49 45//49 46//49
f 28//50 27//50 47//50 48//50
f 32//51 31//51 49//51 43//51
f 19//52 42//52 44//52 50//52
f 20//53 19//53 50//53 45//53
f 27//54 24//54 46//54 47//54
f 31//55 28//55 48//55 49//55
f 45//56 50//56 51//56 52//56
f 47//57 46//57 53//57 54//57
f 49//58 48//58 55//58 56//58
f 44//59 43//59 57//59 58//59
f 46//60 45//60 52//60 53//60
f 48//61 47//61 54//61 55//61
f 43//62 49//62 56//62 57//62
f 50//63 44//63 58//63 51//63
f 41//64 18//64 22//64 21//64
f 29//65 41//65 21//65 40//65
f 30//66 29//66 40//66 39//66
f 25//67 30//67 39//67 38//67
f 26//68 25//68 38//68 37//68
f 23//69 26//69 37//69 36//69
f 17//70 23//70 36//70 35//70
f 18//71 17//71 35//71 22//71
f 18//72 41//72 42//72 19//72
f 6//73 5//73 59//73 60//73
f 10//74 9//74 61//74 62//74
f 14//75 13//75 63//75 64//75
f 13//76 2//76 34//76 63//76
f 1//77 6//77 60//77 33//77
f 5//78 10//78 62//78 59//78
f 9//79 14//79 64//79 61//79
f 60//80 59//80 65//80 66//80
f 62//81 61//81 67//81 68//81
f 34//82 33//82 69//82 70//82
f 33//83 60//83 66//83 69//83
f 63//84 34//84 70//84 71//84
f 64//85 63//85 71//85 72//85
f 59//86 62//86 68//86 65//86
f 61//87 64//87 72//87 67//87
f 71//88 70//88 73//88 74//88
f 69//89 66//89 75//89 76//89
f 66//90 65//90 77//90 75//90
f 67//91 72//91 78//91 79//91
f 72//92 71//92 74//92 78//92
f 70//93 69//93 76//93 73//93
f 65//94 68//94 80//94 77//94
f 68//95 67//95 79//95 80//95
f 80//96 79//96 81//96
f 74//96 73//96 81//96
f 76//96 75//96 81//96
f 75//96 77//96 81//96
f 79//96 78//96 81//96
f 78//96 74//96 81//96
f 73//96 76//96 81//96
f 77//96 80//96 81//96
f 51//97 58//97 84//97 85//97
f 52//98 51//98 85//98 86//98
