# Blender v2.78 (sub 0) OBJ File: '3.blend'
# www.blender.org
mtllib Orange_01.mtl
o Icosphere
v -0.000000 0.008249 -1.337757
v 3.839192 2.056298 1.977814
v -1.466412 1.680450 3.660271
v -4.745494 2.664436 -0.744387
v -1.466412 3.648378 -5.149055
v 3.839192 3.272534 -3.466598
v 1.466412 6.311860 4.694888
v -3.839192 6.687705 3.012432
v -3.839192 7.903939 -2.431982
v 1.466412 8.279787 -4.114438
v 4.745494 7.295802 0.290220
v 0.211175 9.755739 0.173788
v -0.861929 -0.002927 1.377923
v 2.256604 0.217990 0.389008
v 1.394685 1.322048 3.353848
v 4.513222 2.257858 -0.835213
v 2.256604 0.932870 -2.811114
v -2.789327 0.575443 -1.211051
v -3.651278 1.679498 1.753771
v -0.861929 1.153785 -3.800030
v -3.651278 2.836213 -3.424198
v 1.394685 3.193650 -5.024278
v 5.045960 4.622677 1.372984
v 5.045960 5.337561 -1.827151
v -0.000000 3.823398 4.950918
v 3.118572 4.044312 3.962007
v -5.045960 4.622677 1.372984
v -3.118572 4.044312 3.962007
v -3.118572 5.915926 -4.416173
v -5.045960 5.337561 -1.827151
v 3.118572 5.915926 -4.416173
v -0.000000 6.136840 -5.405085
v 3.651278 7.124025 2.970032
v -1.394685 6.766589 4.570112
v -4.513222 7.702380 0.381046
v -1.394685 8.638190 -3.808015
v 3.651278 8.280740 -2.207938
v 0.830221 8.679107 3.217422
v 2.686717 9.236174 0.723682
v -2.173591 8.891894 2.264886
v -2.173591 9.580476 -0.817515
v 0.830221 9.793265 -1.770050
v 0.211175 9.686347 0.158286
v -0.552875 9.632221 0.400573
v -0.552875 9.457074 1.184613
v 0.211175 9.402950 1.426901
v 0.683388 9.544646 0.792593
v -0.552875 9.701613 0.416075
v -0.552875 9.526465 1.200115
v 0.211175 9.472342 1.442402
v 0.683388 9.614036 0.808094
v 0.179042 9.760118 0.276100
v -0.468748 9.714230 0.481520
v -0.468748 9.565732 1.146259
v 0.179042 9.519843 1.351679
v 0.579402 9.639977 0.813889
v 0.165148 9.970531 0.366924
v -0.432370 9.928204 0.556402
v -0.432370 9.791231 1.169552
v 0.165148 9.748903 1.359031
v 0.534437 9.859715 0.862976
vn 0.0771 -0.9968 0.0204
vn 0.7002 -0.7042 0.1173
vn -0.2018 -0.9771 -0.0681
vn -0.2018 -0.9131 -0.3542
vn 0.0771 -0.8934 -0.4426
vn 0.9050 -0.3809 0.1896
vn 0.0247 -0.5281 0.8488
vn -0.8897 -0.3911 0.2355
vn -0.5746 -0.1592 -0.8028
vn 0.5346 -0.1529 -0.8312
vn 0.8026 -0.2497 0.5417
vn -0.3066 -0.3283 0.8934
vn -0.9921 -0.1226 -0.0274
vn -0.3066 0.0831 -0.9482
vn 0.8026 0.0045 -0.5965
vn 0.3741 0.5613 0.7382
vn -0.4532 0.5738 0.6822
vn -0.6542 0.7492 -0.1031
vn 0.0489 0.8451 -0.5323
vn 0.6844 0.7290 -0.0124
vn 0.1549 0.9334 0.3238
vn 0.4511 0.8816 -0.1389
vn 0.3741 0.8221 -0.4292
vn -0.1723 0.9258 -0.3366
vn -0.4532 0.8096 -0.3731
vn -0.0592 0.9976 0.0363
vn -0.5576 0.8101 0.1810
vn -0.6542 0.6341 0.4121
vn -0.1914 0.9579 0.2140
vn -0.1723 0.6945 0.6985
vn 0.0489 0.5383 0.8414
vn -0.0592 0.9182 0.3916
vn 0.4511 0.7387 0.5008
vn 0.6844 0.6544 0.3214
vn 0.8897 0.3911 -0.2355
vn 0.7947 0.3090 -0.5226
vn 0.5746 0.4857 -0.6587
vn -0.0247 0.5281 -0.8488
vn -0.3035 0.3868 -0.8708
vn -0.5346 0.4920 -0.6871
vn -0.9050 0.3809 -0.1896
vn -0.9822 0.1831 0.0409
vn -0.9050 0.2640 0.3336
vn -0.5346 0.1529 0.8312
vn -0.3035 -0.0206 0.9526
vn -0.0247 0.1167 0.9929
vn 0.5746 0.1592 0.8028
vn 0.7947 0.0572 0.6044
vn 0.8897 0.2537 0.3795
vn 0.3066 0.3283 -0.8934
vn 0.3035 0.0206 -0.9526
vn 0.0247 -0.1167 -0.9929
vn -0.8026 0.2497 -0.5417
vn -0.7947 -0.0572 -0.6044
vn -0.8897 -0.2537 -0.3795
vn -0.8026 -0.0045 0.5965
vn -0.7947 -0.3090 0.5226
vn -0.5746 -0.4857 0.6587
vn 0.3066 -0.0831 0.9482
vn 0.3035 -0.3868 0.8708
vn 0.5346 -0.4920 0.6871
vn 0.9921 0.1226 0.0274
vn 0.9822 -0.1831 -0.0409
vn 0.9050 -0.2640 -0.3336
vn 0.4713 -0.5187 -0.7134
vn 0.1876 -0.6497 -0.7367
vn -0.0385 -0.4825 -0.8750
vn -0.4089 -0.5088 -0.7576
vn -0.4911 -0.6977 -0.5215
vn -0.7240 -0.6033 -0.3343
vn -0.7240 -0.6882 0.0458
vn -0.4911 -0.8533 0.1750
vn -0.4089 -0.7828 0.4690
vn 0.7002 -0.5873 -0.4058
vn 0.6071 -0.7755 -0.1732
vn 0.2494 -0.9451 -0.2111
vn -0.0385 -0.8090 0.5865
vn 0.1876 -0.9014 0.3902
vn 0.4713 -0.7729 0.4248
vn 0.1549 0.9824 0.1042
vn -0.3090 -0.2073 0.9282
vn -0.3090 0.2073 -0.9282
vn 0.8090 -0.1282 0.5736
vn -1.0000 0.0000 0.0000
vn 0.8090 0.1281 -0.5736
vn 0.2437 0.9692 0.0351
vn -0.3051 0.3604 -0.8815
vn -0.0931 0.9931 -0.0718
vn -0.0931 0.8681 0.4875
vn 0.2437 0.8920 0.3807
vn -0.3013 0.9306 0.2079
vn 0.0000 0.9759 0.2180
vn -0.3051 -0.0490 0.9511
vn 0.7987 0.2822 -0.5315
vn -0.9872 0.1557 0.0348
vn 0.7987 0.0292 0.6011
usemtl FF5722
s off
f 1//1 14//1 13//1
f 2//2 14//2 16//2
f 1//3 13//3 18//3
f 1//4 18//4 20//4
f 1//5 20//5 17//5
f 2//6 16//6 23//6
f 3//7 15//7 25//7
f 4//8 19//8 27//8
f 5//9 21//9 29//9
f 6//10 22//10 31//10
f 2//11 23//11 26//11
f 3//12 25//12 28//12
f 4//13 27//13 30//13
f 5//14 29//14 32//14
f 6//15 31//15 24//15
f 7//16 33//16 38//16
f 8//17 34//17 40//17
f 9//18 35//18 41//18
f 10//19 36//19 42//19
f 11//20 37//20 39//20
f 38//21 39//21 47//21 46//21
f 39//22 37//22 42//22
f 37//23 10//23 42//23
f 42//24 36//24 41//24
f 36//25 9//25 41//25
f 42//26 41//26 44//26 43//26
f 41//27 35//27 40//27
f 35//28 8//28 40//28
f 41//29 40//29 45//29 44//29
f 40//30 34//30 38//30
f 34//31 7//31 38//31
f 40//32 38//32 46//32 45//32
f 38//33 33//33 39//33
f 33//34 11//34 39//34
f 24//35 37//35 11//35
f 24//36 31//36 37//36
f 31//37 10//37 37//37
f 32//38 36//38 10//38
f 32//39 29//39 36//39
f 29//40 9//40 36//40
f 30//41 35//41 9//41
f 30//42 27//42 35//42
f 27//43 8//43 35//43
f 28//44 34//44 8//44
f 28//45 25//45 34//45
f 25//46 7//46 34//46
f 26//47 33//47 7//47
f 26//48 23//48 33//48
f 23//49 11//49 33//49
f 31//50 32//50 10//50
f 31//51 22//51 32//51
f 22//52 5//52 32//52
f 29//53 30//53 9//53
f 29//54 21//54 30//54
f 21//55 4//55 30//55
f 27//56 28//56 8//56
f 27//57 19//57 28//57
f 19//58 3//58 28//58
f 25//59 26//59 7//59
f 25//60 15//60 26//60
f 15//61 2//61 26//61
f 23//62 24//62 11//62
f 23//63 16//63 24//63
f 16//64 6//64 24//64
f 17//65 22//65 6//65
f 17//66 20//66 22//66
f 20//67 5//67 22//67
f 20//68 21//68 5//68
f 20//69 18//69 21//69
f 18//70 4//70 21//70
f 18//71 19//71 4//71
f 18//72 13//72 19//72
f 13//73 3//73 19//73
f 16//74 17//74 6//74
f 16//75 14//75 17//75
f 14//76 1//76 17//76
f 13//77 15//77 3//77
f 13//78 14//78 15//78
f 14//79 2//79 15//79
f 39//80 42//80 43//80 47//80
usemtl 4CAF50
f 45//81 46//81 50//81 49//81
f 43//82 44//82 48//82 12//82
f 46//83 47//83 51//83 50//83
f 44//84 45//84 49//84 48//84
f 47//85 43//85 12//85 51//85
f 12//86 52//86 56//86 51//86
f 52//87 53//87 58//87 57//87
f 48//88 53//88 52//88 12//88
f 50//89 55//89 54//89 49//89
f 51//90 56//90 55//90 50//90
f 49//91 54//91 53//91 48//91
f 57//92 58//92 59//92 60//92 61//92
f 54//93 55//93 60//93 59//93
f 56//94 52//94 57//94 61//94
f 53//95 54//95 59//95 58//95
f 55//96 56//96 61//96 60//96
