# Blender v2.82 (sub 7) OBJ File: ''
# www.blender.org
mtllib NaranjaVariante.mtl
o Icosphere
v 0.000000 0.008249 -1.337757
v 2.256604 0.217990 0.389008
v -0.861929 -0.002927 1.377923
v 3.839192 2.056298 1.977814
v 4.513222 2.257858 -0.835213
v -2.789327 0.575443 -1.211051
v -0.861929 1.153786 -3.800030
v 2.256604 0.932870 -2.811114
v 5.045960 4.622677 1.372985
v -1.466412 1.680449 3.660271
v 1.394685 1.322047 3.353848
v 0.000000 3.823397 4.950919
v -4.745494 2.664436 -0.744387
v -3.651278 1.679498 1.753771
v -5.045960 4.622677 1.372985
v -1.466412 3.648379 -5.149055
v -3.651278 2.836214 -3.424197
v -3.118572 5.915927 -4.416172
v 3.839192 3.272534 -3.466598
v 1.394685 3.193651 -5.024278
v 3.118572 5.915927 -4.416172
v 3.118572 4.044312 3.962008
v -3.118572 4.044312 3.962008
v -5.045960 5.337562 -1.827150
v 0.000000 6.136841 -5.405084
v 5.045960 5.337562 -1.827150
v 1.466412 6.311859 4.694889
v 3.651278 7.124024 2.970033
v 0.830221 8.679106 3.217423
v -3.839192 6.687705 3.012433
v -1.394685 6.766588 4.570113
v -2.173591 8.891894 2.264887
v -3.839192 7.903939 -2.431981
v -4.513222 7.702380 0.381047
v -2.173591 9.580476 -0.817513
v 1.466412 8.279788 -4.114437
v -1.394685 8.638191 -3.808014
v 0.830221 9.793265 -1.770048
v 4.745494 7.295802 0.290221
v 3.651278 8.280740 -2.207937
v 2.686717 9.236174 0.723683
v 0.683388 9.544646 0.792595
v 0.211175 9.402950 1.426903
v -0.552875 9.632221 0.400575
v 0.211175 9.686347 0.158288
v -0.552875 9.457074 1.184615
v 0.211175 9.472342 1.442404
v -0.552875 9.526465 1.200117
v -0.552875 9.701613 0.416077
v 0.211175 9.755739 0.173790
v 0.683388 9.614036 0.808096
v 0.179042 9.760118 0.276102
v 0.579402 9.639977 0.813891
v -0.468748 9.714230 0.481522
v -0.432370 9.928204 0.556404
v 0.165148 9.970531 0.366926
v 0.179042 9.519843 1.351681
v -0.468748 9.565732 1.146260
v -0.432370 9.791231 1.169554
v 0.165148 9.748903 1.359033
v 0.534437 9.859715 0.862978
vn 0.0771 -0.9968 0.0204
vn 0.7002 -0.7042 0.1173
vn -0.2018 -0.9771 -0.0681
vn -0.2018 -0.9131 -0.3542
vn 0.0771 -0.8934 -0.4426
vn 0.9050 -0.3809 0.1896
vn 0.0247 -0.5281 0.8488
vn -0.8897 -0.3911 0.2355
vn -0.5746 -0.1592 -0.8028
vn 0.5346 -0.1529 -0.8312
vn 0.8026 -0.2497 0.5417
vn -0.3066 -0.3283 0.8934
vn -0.9921 -0.1226 -0.0274
vn -0.3066 0.0831 -0.9482
vn 0.8026 0.0045 -0.5965
vn 0.3741 0.5613 0.7382
vn -0.4532 0.5738 0.6822
vn -0.6542 0.7492 -0.1031
vn 0.0489 0.8451 -0.5323
vn 0.6844 0.7290 -0.0124
vn 0.4511 0.8816 -0.1389
vn 0.3741 0.8221 -0.4292
vn -0.4532 0.8096 -0.3731
vn -0.5576 0.8101 0.1810
vn -0.6542 0.6341 0.4121
vn -0.1914 0.9579 0.2140
vn -0.1723 0.6945 0.6985
vn 0.0489 0.5383 0.8414
vn -0.0592 0.9182 0.3917
vn 0.6844 0.6544 0.3214
vn 0.8897 0.3911 -0.2355
vn 0.7947 0.3090 -0.5226
vn 0.5746 0.4857 -0.6587
vn -0.0247 0.5281 -0.8488
vn -0.3035 0.3868 -0.8708
vn -0.5346 0.4920 -0.6871
vn -0.9050 0.3809 -0.1896
vn -0.9822 0.1831 0.0409
vn -0.9050 0.2640 0.3336
vn -0.5346 0.1529 0.8312
vn -0.3035 -0.0206 0.9526
vn -0.0247 0.1167 0.9929
vn 0.5746 0.1592 0.8028
vn 0.7947 0.0572 0.6044
vn 0.8897 0.2537 0.3795
vn 0.3066 0.3283 -0.8934
vn 0.3035 0.0206 -0.9526
vn 0.0247 -0.1167 -0.9929
vn -0.8026 0.2497 -0.5417
vn -0.7947 -0.0572 -0.6044
vn -0.8897 -0.2537 -0.3795
vn -0.8026 -0.0045 0.5965
vn -0.7947 -0.3090 0.5226
vn -0.5746 -0.4857 0.6587
vn 0.3066 -0.0831 0.9482
vn 0.3035 -0.3868 0.8708
vn 0.5346 -0.4920 0.6871
vn 0.9921 0.1226 0.0274
vn 0.9822 -0.1831 -0.0409
vn 0.9050 -0.2640 -0.3336
vn 0.4713 -0.5187 -0.7134
vn 0.1876 -0.6497 -0.7367
vn -0.0385 -0.4825 -0.8750
vn -0.4089 -0.5088 -0.7576
vn -0.4911 -0.6977 -0.5215
vn -0.7240 -0.6033 -0.3343
vn -0.7240 -0.6882 0.0458
vn -0.4911 -0.8533 0.1750
vn -0.4089 -0.7828 0.4690
vn 0.7002 -0.5873 -0.4058
vn 0.6071 -0.7755 -0.1732
vn 0.2494 -0.9451 -0.2111
vn -0.0385 -0.8090 0.5865
vn 0.1876 -0.9014 0.3902
vn 0.4713 -0.7729 0.4248
vn 0.1549 0.9824 0.1042
vn 0.1549 0.9334 0.3238
vn -0.1723 0.9258 -0.3366
vn -0.0592 0.9976 0.0363
vn 0.4511 0.7387 0.5008
vn -0.3090 -0.2073 0.9282
vn -0.3090 0.2074 -0.9282
vn 0.8090 -0.1281 0.5736
vn -1.0000 -0.0000 0.0000
vn 0.8090 0.1282 -0.5736
vn 0.2437 0.9692 0.0351
vn -0.3051 0.3604 -0.8815
vn -0.0931 0.9931 -0.0717
vn -0.0931 0.8681 0.4875
vn 0.2437 0.8920 0.3807
vn -0.3013 0.9306 0.2079
vn 0.0000 0.9759 0.2180
vn -0.3051 -0.0490 0.9511
vn 0.7987 0.2822 -0.5315
vn -0.9872 0.1557 0.0348
vn 0.7987 0.0292 0.6011
usemtl FF5722
s 1
f 1//1 2//1 3//1
f 4//2 2//2 5//2
f 1//3 3//3 6//3
f 1//4 6//4 7//4
f 1//5 7//5 8//5
f 4//6 5//6 9//6
f 10//7 11//7 12//7
f 13//8 14//8 15//8
f 16//9 17//9 18//9
f 19//10 20//10 21//10
f 4//11 9//11 22//11
f 10//12 12//12 23//12
f 13//13 15//13 24//13
f 16//14 18//14 25//14
f 19//15 21//15 26//15
f 27//16 28//16 29//16
f 30//17 31//17 32//17
f 33//18 34//18 35//18
f 36//19 37//19 38//19
f 39//20 40//20 41//20
f 41//21 40//21 38//21
f 40//22 36//22 38//22
f 37//23 33//23 35//23
f 35//24 34//24 32//24
f 34//25 30//25 32//25
f 35//26 32//26 46//26 44//26
f 32//27 31//27 29//27
f 31//28 27//28 29//28
f 32//29 29//29 43//29 46//29
f 28//30 39//30 41//30
f 26//31 40//31 39//31
f 26//32 21//32 40//32
f 21//33 36//33 40//33
f 25//34 37//34 36//34
f 25//35 18//35 37//35
f 18//36 33//36 37//36
f 24//37 34//37 33//37
f 24//38 15//38 34//38
f 15//39 30//39 34//39
f 23//40 31//40 30//40
f 23//41 12//41 31//41
f 12//42 27//42 31//42
f 22//43 28//43 27//43
f 22//44 9//44 28//44
f 9//45 39//45 28//45
f 21//46 25//46 36//46
f 21//47 20//47 25//47
f 20//48 16//48 25//48
f 18//49 24//49 33//49
f 18//50 17//50 24//50
f 17//51 13//51 24//51
f 15//52 23//52 30//52
f 15//53 14//53 23//53
f 14//54 10//54 23//54
f 12//55 22//55 27//55
f 12//56 11//56 22//56
f 11//57 4//57 22//57
f 9//58 26//58 39//58
f 9//59 5//59 26//59
f 5//60 19//60 26//60
f 8//61 20//61 19//61
f 8//62 7//62 20//62
f 7//63 16//63 20//63
f 7//64 17//64 16//64
f 7//65 6//65 17//65
f 6//66 13//66 17//66
f 6//67 14//67 13//67
f 6//68 3//68 14//68
f 3//69 10//69 14//69
f 5//70 8//70 19//70
f 5//71 2//71 8//71
f 2//72 1//72 8//72
f 3//73 11//73 10//73
f 3//74 2//74 11//74
f 2//75 4//75 11//75
f 41//76 38//76 45//76 42//76
usemtl 4CAF50
f 29//77 41//77 42//77 43//77
f 38//78 37//78 35//78
f 38//79 35//79 44//79 45//79
f 29//80 28//80 41//80
f 46//81 43//81 47//81 48//81
f 45//82 44//82 49//82 50//82
f 43//83 42//83 51//83 47//83
f 44//84 46//84 48//84 49//84
f 42//85 45//85 50//85 51//85
f 50//86 52//86 53//86 51//86
f 52//87 54//87 55//87 56//87
f 49//88 54//88 52//88 50//88
f 47//89 57//89 58//89 48//89
f 51//90 53//90 57//90 47//90
f 48//91 58//91 54//91 49//91
f 56//92 55//92 59//92 60//92 61//92
f 58//93 57//93 60//93 59//93
f 53//94 52//94 56//94 61//94
f 54//95 58//95 59//95 55//95
f 57//96 53//96 61//96 60//96
